<svg enable-background="new 0 0 1024 1024" height="1024" viewBox="0 0 1024 1024" width="1024" xmlns="http://www.w3.org/2000/svg"><path d="m157.368 47.947h709.264v928.105h-709.264z"/><path d="m516.887 514.027c11.592 14.504 22.837 28.582 34.488 43.168 55.884-44.752 111.439-89.249 167.569-134.202 22.756 28.06 45.316 55.869 68.201 84.086-92.878 73.911-185.473 147.597-278.535 221.657-90.603-111.449-180.884-222.502-271.756-334.286 93.023-75.148 185.75-150.062 279.127-225.495 22.742 28.372 45.139 56.308 68.022 84.847-55.419 44.81-110.582 89.413-166.252 134.426 10.504 13.615 20.77 26.928 31.592 40.955 51.515-41.069 102.741-81.921 154.463-123.149 22.648 27.84 45.115 55.462 68.094 83.703-51.744 41.487-103.217 82.76-155.013 124.29z" fill="#fff"/><path d="m574.932 855.045 58.997-60.498-7.499-78.996 145.515 123.781-2 3z" fill="#fff"/><path d="m481.853 688.848c-126.661 67.275-47.84 168.809 35.998 119.859 54.186-31.629 83.257-22.568 120.833-13.809" fill="none" stroke="#fff" stroke-miterlimit="10" stroke-width="25"/></svg>