<svg enable-background="new 0 0 250 250" height="250" viewBox="0 0 250 250" width="250" xmlns="http://www.w3.org/2000/svg"><path d="m126.619 126.672c3.843 4.809 7.57 9.475 11.432 14.308 18.523-14.831 36.938-29.581 55.543-44.481 7.544 9.301 15.021 18.52 22.607 27.871-30.786 24.499-61.479 48.923-92.325 73.472-30.031-36.943-59.956-73.752-90.077-110.804 30.833-24.91 61.57-49.74 92.521-74.744 7.538 9.404 14.961 18.664 22.547 28.124-18.369 14.852-36.655 29.636-55.107 44.556 3.482 4.513 6.884 8.925 10.472 13.576 17.075-13.613 34.055-27.153 51.197-40.82 7.508 9.228 14.955 18.384 22.571 27.746-17.15 13.75-34.211 27.431-51.381 41.196z" fill="#fff"/><path d="m145.859 237.706 17.741-18.19-2.254-23.755 43.758 37.22-.601.903z" fill="#fff"/><path d="m115.007 184.618c-41.984 22.301-15.857 55.955 11.932 39.73 17.96-10.484 27.596-7.48 40.051-4.578" fill="none" stroke="#fff" stroke-miterlimit="10" stroke-width="8"/></svg>